<svg width="0" height="0" class="hidden">
    <symbol viewBox="0 0 64 64" xmlns="http://www.w3.org/2000/svg" id="step-01" fill="currentColor">
	<path d="M41.245 33.035a16 16 0 1 0-18.49 0A26.041 26.041 0 0 0 4 58a2 2 0 0 0 2 2h52a2 2 0 0 0 2-2 26.041 26.041 0 0 0-18.755-24.965zM20 20a12 12 0 1 1 12 12 12.014 12.014 0 0 1-12-12zM8.09 56A22.03 22.03 0 0 1 30 36h4a22.03 22.03 0 0 1 21.91 20z"></path>
    </symbol>
    <symbol viewBox="0 0 48 48" xmlns="http://www.w3.org/2000/svg" id="step-02" fill="currentColor">
	<path d="M21.774 47.771l-1.434-3.853-.237-.81a15.37 15.37 0 0 0 11.449-7.142v.03c.15-.239.303-.504.457-.783.029-.059.059-.119.09-.175 2.092-3.938 4.111-11.174 4.111-11.174l-.012-.003a18.33 18.33 0 0 0 .773-5.258C36.971 8.41 28.705.146 18.514.146 8.323.148.06 8.412.06 18.605c0 1.41.163 2.781.467 4.097l.001.005c.007.033.017.065.025.099.227.884 1.925 7.312 4.092 11.645l.002.005c.213.427.43.84.652 1.219v-.002a15.325 15.325 0 0 0 11.766 7.443l-.143.552-1.659 4.104.016.009c-.014.023-.02.049-.032.071h6.538c-.011-.022-.02-.047-.031-.068l.02-.013zM7.466 33.204c-.013-.021-.025-.029-.039-.053-1.832-2.778-3.845-10.877-3.845-10.877l.021.018a15.35 15.35 0 0 1-.467-3.687c0-8.495 6.887-15.381 15.38-15.381 8.494 0 15.378 6.886 15.378 15.381 0 1.056-.135 2.077-.336 3.073l.027.003s-.061.269-.172.731c-.008.035-.014.071-.023.105-.508 2.088-1.959 7.606-3.795 10.648l-.039.054c-1.996 4.093-6.182 6.919-11.041 6.919-4.864 0-9.054-2.833-11.049-6.934z"></path>
	<path d="M47.939 23.32c0-7.612-5.498-13.925-12.734-15.223.623.89 1.256 1.951 1.791 3.159 4.885 1.838 8.363 6.539 8.363 12.064 0 .886-.111 1.743-.283 2.577l.023.003s-.051.226-.145.612a1.452 1.452 0 0 1-.02.09c-.424 1.751-1.641 6.381-3.184 8.931l-.033.046c-1.674 3.434-5.184 5.803-9.258 5.803-1.316 0-2.562-.271-3.717-.723l-.004.006-1.572 1.053c-.348.267-.686.504-.902.604 1.504.829 3.18 1.39 4.979 1.558l-.121.463-1.393 3.443.014.008c-.012.019-.016.039-.027.059h5.486c-.014-.02-.02-.039-.027-.059l.014-.008-1.201-3.232-.199-.679a12.89 12.89 0 0 0 9.605-5.991v.025c.127-.199.256-.423.381-.656.027-.048.051-.1.078-.147 1.754-3.301 3.449-9.372 3.449-9.372l-.012-.002c.421-1.399.649-2.878.649-4.412z"></path>
    </symbol>
    <symbol viewBox="0 0 24 24" xmlns="http://www.w3.org/2000/svg" id="step-03" fill="currentColor">
	<path d="M12 0C5.4 0 0 5.4 0 12s5.4 12 12 12 12-5.4 12-12S18.6 0 12 0zm0 22C6.5 22 2 17.5 2 12S6.5 2 12 2s10 4.5 10 10-4.5 10-10 10z"></path>
	<path d="M13.9 12.5c0-.2.1-.3.1-.5 0-.7-.4-1.4-1-1.7V4c0-.6-.4-1-1-1s-1 .4-1 1v6.3c-.6.3-1 1-1 1.7 0 1.1.9 2 2 2 .2 0 .3 0 .5-.1l1.8 1.8c.4.4 1 .4 1.4 0s.4-1 0-1.4l-1.8-1.8zM12 13c-.6 0-1-.4-1-1s.4-1 1-1 1 .4 1 1-.4 1-1 1z"></path>
	<circle cx="20" cy="12" r="1"></circle>
	<circle cx="4" cy="12" r="1"></circle>
	<circle cx="17.7" cy="17.7" r="1"></circle>
	<circle cx="6.3" cy="6.3" r="1"></circle>
	<circle cx="12" cy="20" r="1"></circle>
	<circle cx="6.3" cy="17.7" r="1"></circle>
	<circle cx="17.7" cy="6.3" r="1"></circle>
    </symbol>
    <symbol fill="none" stroke="currentColor" stroke-linecap="round" stroke-linejoin="round" stroke-width="2" viewBox="0 0 24 24" xmlns="http://www.w3.org/2000/svg" id="step-04">
	<path d="M6 2L3 6v14a2 2 0 0 0 2 2h14a2 2 0 0 0 2-2V6l-3-4zM3 6h18m-5 4a4 4 0 0 1-8 0"></path>
    </symbol>
    <symbol viewBox="0 0 32 32" xmlns="http://www.w3.org/2000/svg" id="step-05" fill="currentColor">
	<title></title>
	<path d="M24 29H8a5 5 0 0 1-5-5V10a5 5 0 0 1 5-5h16a5 5 0 0 1 5 5v14a5 5 0 0 1-5 5zM8 7a3 3 0 0 0-3 3v14a3 3 0 0 0 3 3h16a3 3 0 0 0 3-3V10a3 3 0 0 0-3-3z"></path>
	<path d="M24 25h-4a1 1 0 0 1-1-1v-4a1 1 0 0 1 1-1h4a1 1 0 0 1 1 1v4a1 1 0 0 1-1 1zm-3-2h2v-2h-2zm7-10H4a1 1 0 0 1 0-2h24a1 1 0 0 1 0 2zM11 9a1 1 0 0 1-1-1V4a1 1 0 0 1 2 0v4a1 1 0 0 1-1 1zm10 0a1 1 0 0 1-1-1V4a1 1 0 0 1 2 0v4a1 1 0 0 1-1 1z"></path>
	<path fill="none" d="M0 0h32v32H0z"></path>
    </symbol>
    <symbol xmlns="http://www.w3.org/2000/svg" viewBox="0 0 24 24" id="step-06" fill="currentColor">
	<path d="M0 20.5c0 .6.4 1 1 1h22c.6 0 1-.4 1-1v-1H0v1zm22-3h2c0-6.3-4.8-11.4-11-11.9V4.5h1c.6 0 1-.4 1-1s-.4-1-1-1h-4c-.6 0-1 .4-1 1s.4 1 1 1h1v1.1c-6.2.5-11 5.6-11 11.9h22zm-10-10c4.8 0 8.9 3.4 9.8 8H2.2c.9-4.6 5-8 9.8-8z"></path>
	<path d="M16.5 9.7l-.5.9c1.5.9 2.7 2.2 3.4 3.8l.9-.4c-.7-1.8-2.1-3.3-3.8-4.3z"></path>
    </symbol>
    <symbol xmlns="http://www.w3.org/2000/svg" viewBox="0 0 28 28" id="step-07" fill="currentColor">
	<title></title>
	<path d="M17.3 5H9.7C8.5 5 7.5 6 7.5 7.3V14c0 3.3 2.7 6 6 6s6-2.7 6-6V7.3c0-1.3-1-2.3-2.2-2.3zm-4.2 4.3c-1.1.6-2.4.9-3.7.8V7.3c.1-.2.2-.3.3-.3h7.6c.1 0 .3.1.3.3v1.8c-1.5-.6-3.1-.5-4.5.2zM16.5 26h-2v-5.1c-.7.1-1.3.1-2 0V26h-2c-.6 0-1 .4-1 1s.4 1 1 1h6c.6 0 1-.4 1-1s-.4-1-1-1zm3-26h-4c-.4 0-.8.2-.9.6l-1.5 3.9h2.1l1-2.5h3.3c.6 0 1-.4 1-1s-.4-1-1-1z"></path>
    </symbol>
    <symbol xmlns="http://www.w3.org/2000/svg" viewBox="0 0 15 15" id="step-08" fill="currentColor">
	<path d="M8.1 5h2.5l-6.1 6.1L6 7H3.4l2.3-6h3.9L8.1 5zM4.5 8H2l3-8h6L9.5 4H13L2 15l2.5-7z" fill-rule="evenodd" clip-rule="evenodd"></path>
    </symbol>
    <symbol viewBox="0 0 29 29" xmlns="http://www.w3.org/2000/svg" id="step-09" stroke="currentColor">
	<path fill="none" stroke="currentColor" stroke-width="2" stroke-linecap="round" stroke-linejoin="round" stroke-miterlimit="10" d="
	M24.8,10.8c-0.9,0.9-2.2,1.1-3.3,0.7l-3.3,3.3c-1.6,1.6-4.4,1.5-6.2-0.3l0,0l5.9-5.9"/>
	<path fill="none" stroke="currentColor" stroke-width="2" stroke-linecap="round" stroke-linejoin="round" stroke-miterlimit="10" d="
	M28,4.5h-9.5c-3.3,0-6.3,2.1-7.5,5.2l-0.2,0.8"/>
	<path fill="none" stroke="currentColor" stroke-width="2" stroke-linecap="round" stroke-linejoin="round" stroke-miterlimit="10" d="
	M24.3,17.8c1-0.9,1.8-2,2.3-3.3H28"/>
	<path fill="none" stroke="currentColor" stroke-width="2" stroke-linecap="round" stroke-linejoin="round" stroke-miterlimit="10" d="
	M22,12.5v10c0,1.1-0.9,2-2,2H3c-1.1,0-2-0.9-2-2v-10c0-1.1,0.9-2,2-2h13"/>
	<line fill="none" stroke="currentColor" stroke-width="2" stroke-linecap="round" stroke-linejoin="round" stroke-miterlimit="10" x1="1" y1="14.5" x2="12" y2="14.5"/>
	<circle fill="none" stroke="currentColor" stroke-width="2" stroke-linecap="round" stroke-linejoin="round" stroke-miterlimit="10" cx="14" cy="19.5" r="1"/>
	<circle fill="none" stroke="currentColor" stroke-width="2" stroke-linecap="round" stroke-linejoin="round" stroke-miterlimit="10" cx="17" cy="19.5" r="1"/>
	<line fill="none" stroke="currentColor" stroke-width="2" stroke-linecap="round" stroke-linejoin="round" stroke-miterlimit="10" x1="5" y1="20.5" x2="8" y2="20.5"/>
    </symbol>
</svg>